<svg width="51" height="50" viewBox="0 0 51 50" fill="none" xmlns="http://www.w3.org/2000/svg">
<g id="Instagram">
<path id="Icon" d="M36.6044 13.5417H36.625M14.9456 4.16675H35.573C41.2692 4.16675 45.8868 8.83045 45.8868 14.5834V35.4167C45.8868 41.1697 41.2692 45.8334 35.573 45.8334H14.9456C9.24945 45.8334 4.63184 41.1697 4.63184 35.4167V14.5834C4.63184 8.83045 9.24945 4.16675 14.9456 4.16675ZM33.5103 23.6876C33.7649 25.4214 33.4716 27.1922 32.6723 28.748C31.873 30.3039 30.6083 31.5655 29.0581 32.3536C27.5079 33.1416 25.7512 33.4159 24.0377 33.1374C22.3243 32.859 20.7414 32.0419 19.5142 30.8025C18.287 29.5631 17.4781 27.9644 17.2024 26.2339C16.9266 24.5033 17.1982 22.729 17.9785 21.1634C18.7587 19.5977 20.0079 18.3204 21.5484 17.5131C23.0888 16.7058 24.8421 16.4096 26.5588 16.6667C28.3099 16.929 29.9311 17.7531 31.1829 19.0174C32.4346 20.2816 33.2506 21.919 33.5103 23.6876Z" stroke="white" stroke-width="4" stroke-linecap="round" stroke-linejoin="round"/>
</g>
</svg>
