<svg width="50" height="50" viewBox="0 0 50 50" fill="none" xmlns="http://www.w3.org/2000/svg">
<g id="Linkedin">
<g id="Icon">
<path d="M33.0161 16.6667C36.2986 16.6667 39.4466 17.9837 41.7676 20.3279C44.0887 22.6721 45.3926 25.8515 45.3926 29.1667V43.7501H37.1416V29.1667C37.1416 28.0617 36.707 27.0019 35.9333 26.2205C35.1596 25.4391 34.1103 25.0001 33.0161 25.0001C31.922 25.0001 30.8727 25.4391 30.099 26.2205C29.3253 27.0019 28.8907 28.0617 28.8907 29.1667V43.7501H20.6397V29.1667C20.6397 25.8515 21.9436 22.6721 24.2647 20.3279C26.5857 17.9837 29.7337 16.6667 33.0161 16.6667Z" stroke="white" stroke-width="4" stroke-linecap="round" stroke-linejoin="round"/>
<path d="M12.3887 18.7501H4.1377V43.7501H12.3887V18.7501Z" stroke="white" stroke-width="4" stroke-linecap="round" stroke-linejoin="round"/>
<path d="M8.26319 12.5001C10.5416 12.5001 12.3887 10.6346 12.3887 8.33341C12.3887 6.03223 10.5416 4.16675 8.26319 4.16675C5.98474 4.16675 4.1377 6.03223 4.1377 8.33341C4.1377 10.6346 5.98474 12.5001 8.26319 12.5001Z" stroke="white" stroke-width="4" stroke-linecap="round" stroke-linejoin="round"/>
</g>
</g>
</svg>
