<svg width="51" height="50" viewBox="0 0 51 50" fill="none" xmlns="http://www.w3.org/2000/svg">
<g id="mail">
<path id="icon" d="M8.76905 41.6666C7.63454 41.6666 6.66333 41.2586 5.85542 40.4426C5.04751 39.6267 4.64355 38.6458 4.64355 37.4999V12.4999C4.64355 11.3541 5.04751 10.3732 5.85542 9.55721C6.66333 8.74124 7.63454 8.33325 8.76905 8.33325H41.773C42.9075 8.33325 43.8787 8.74124 44.6866 9.55721C45.4945 10.3732 45.8985 11.3541 45.8985 12.4999V37.4999C45.8985 38.6458 45.4945 39.6267 44.6866 40.4426C43.8787 41.2586 42.9075 41.6666 41.773 41.6666H8.76905ZM25.271 27.0833L8.76905 16.6666V37.4999H41.773V16.6666L25.271 27.0833ZM25.271 22.9166L41.773 12.4999H8.76905L25.271 22.9166ZM8.76905 16.6666V12.4999V37.4999V16.6666Z" fill="white"/>
</g>
</svg>
